# AST/ASF file generated using VICON BodyLanguage
# -----------------------------------------------
:version 1.10
:name VICON
:units
  mass 1.0
  length 0.45
  angle deg
:documentation
   .ast/.asf automatically generated from VICON data using
   VICON BodyBuilder and BodyLanguage model FoxedUp or BRILLIANT.MOD
:root
   order TX TY TZ RX RY RZ
   axis XYZ
   position 0 0 0  
   orientation 0 0 0 
:bonedata
  begin
     id 1 
     name lhipjoint
     direction 0.521452 -0.77106 0.36545 
     length 2.0933 
     axis 0 0 0  XYZ
  end
  begin
     id 2 
     name lfemur
     direction 0.34202 -0.939693 0  
     length 6.83441  
     axis 0 0 20  XYZ
    dof rx ry rz
    limits (-160.0 20.0)
           (-70.0 70.0)
           (-60.0 70.0)
  end
  begin
     id 3 
     name ltibia
     direction 0.34202 -0.939693 0   
     length 7.28749   
     axis 0 0 20   XYZ
    dof rx
    limits (-10.0 170.0)
  end
  begin
     id 4 
     name lfoot
     direction 0.100608 -0.276418 0.955757   
     length 1.52195   
     axis -90 7.62852e-016 20   XYZ
    dof rx rz
    limits (-45.0 90.0)
           (-70.0 20.0)
  end
  begin
     id 5 
     name ltoes
     direction 1.53558e-011 -4.21907e-011 1   
     length 0.770459   
     axis -90 7.62852e-016 20   XYZ
    dof rx
    limits (-90.0 20.0)
  end
  begin
     id 6 
     name rhipjoint
     direction -0.488071 -0.788702 0.373812   
     length 2.04648  
     axis 0 0 0  XYZ 
  end
  begin
     id 7 
     name rfemur
     direction -0.34202 -0.939693 0   
     length 6.92583   
     axis 0 0 -20   XYZ
    dof rx ry rz
    limits (-160.0 20.0)
           (-70.0 70.0)
           (-70.0 60.0)
  end
  begin
     id 8 
     name rtibia
     direction -0.34202 -0.939693 0   
     length 7.41043   
     axis 0 0 -20   XYZ
    dof rx
    limits (-10.0 170.0)
 end
 begin
     id 9 
     name rfoot
     direction -0.0784433 -0.215521 0.973343   
     length 1.67708  
     axis -90 -7.62852e-016 -20   XYZ
    dof rx rz
    limits (-45.0 90.0)
           (-20.0 70.0)
  end
  begin
     id 10 
     name rtoes
     direction -1.53551e-011 -4.21842e-011 1   
     length 0.849787   
     axis -90 -7.62852e-016 -20   XYZ
    dof rx
    limits (-90.0 20.0)
  end
  begin
     id 11 
     name lowerback
     direction -0.0122332 0.997575 -0.0685192   
     length 1.98724   
     axis 0 0 0   XYZ
    dof rx ry rz
    limits (-20.0 45.0)
           (-30.0 30.0)
           (-30.0 30.0)
  end
  begin
     id 12 
     name upperback
     direction 0.0182347 0.999724 -0.0148421   
     length 1.99029   
     axis 0 0 0   XYZ
    dof rx ry rz
    limits (-20.0 45.0)
           (-30.0 30.0)
           (-30.0 30.0)
  end
  begin
     id 13 
     name thorax
     direction 0.0242908 0.99956 0.0170184   
     length 1.99573   
     axis 0 0 0   XYZ
    dof rx ry rz
    limits (-20.0 45.0)
           (-30.0 30.0)
           (-30.0 30.0)
  end
  begin
     id 14 
     name lowerneck
     direction 0.0654488 0.985533 0.156338   
     length 1.4285   
     axis 0 0 0   XYZ
    dof rx ry rz
    limits (-20.0 45.0)
           (-30.0 30.0)
           (-30.0 30.0)
  end
  begin
     id 15 
     name upperneck
     direction -0.02953 0.998556 -0.0448842   
     length 1.44709   
     axis 0 0 0   XYZ
    dof rx ry rz
    limits (-20.0 45.0)
           (-30.0 30.0)
           (-30.0 30.0)
  end
  begin
     id 16
     name head
     direction -0.0155588 0.999386 -0.0314063  
     length 1.44689  
     axis 0 0 0   XYZ
    dof rx ry rz
    limits (-20.0 45.0)
           (-30.0 30.0)
           (-30.0 30.0)
  end
  begin
     id 17 
     name lclavicle
     direction 0.968229 0.236071 -0.0824755  
     length 3.60593  
     axis 0 0 0   XYZ
    dof ry rz
    limits (-20.0 10.0)
           (0.0 20.0)
  end
  begin
     id 18 
     name lhumerus
     direction 1 -4.48968e-011 7.8138e-029   
     length 5.06035   
     axis 180 -30 -90   XYZ
    dof rx ry rz
    limits (-60.0 90.0)
           (-90.0 90.0)
           (-90.0 90.0)
  end
  begin
     id 19
     name lradius
     direction 1 -4.48967e-011 9.02887e-028   
     length 3.1478   
     axis 180 -30 -90   XYZ
    dof rx
    limits (-10.0 170.0)
  end
  begin
     id 20
     name lwrist
     direction 1 -4.48961e-011 7.20928e-028   
     length 1.5739   
     axis -5.52449e-016 90 90   XYZ
    dof ry
    limits (-180.0 0.0)
 end
  begin
     id 21 
     name lhand
     direction 1 -4.48972e-011 1.44186e-027   
     length 0.606747   
     axis -9.20027e-016 90 90   XYZ
    dof rx rz
    limits (-90.0 90.0)
           (-45.0 45.0)
  end
  begin
     id 22 
     name lfingers
     direction 1 -4.48943e-011 2.88371e-027   
     length 0.489175   
     axis -1.84005e-015 90 90   XYZ
    dof rx
    limits (0.0 90.0)
  end
  begin
     id 23
     name lthumb
     direction 0.707107 -6.34917e-011 0.707107   
     length 0.70236   
     axis -90 45 2.85299e-015   XYZ
    dof rx rz
    limits (-45.0 45.0)
           (-45.0 45.0)
  end
  begin
     id 24 
     name rclavicle
     direction -0.978165 0.207816 0.0022268   
     length 3.35425  
     axis 0 0 0   XYZ 
    dof ry rz
    limits (-10.0 20.0)
           (-20.0 0.0)
  end
  begin
     id 25 
     name rhumerus
     direction -1 -4.48964e-011 -4.02159e-027  
     length 5.12273   
     axis 180 30 90   XYZ
    dof rx ry rz
    limits (-90.0 60.0)
           (-90.0 90.0)
           (-90.0 90.0)
  end
  begin
     id 26 
     name rradius
     direction -1 -4.48966e-011 1.62746e-027   
     length 3.422   
     axis 180 30 90   XYZ
    dof rx
    limits (-10.0 170.0)
  end
  begin
     id 27 
     name rwrist
     direction -1 -4.4896e-011 7.20928e-028   
     length 1.711   
     axis -5.52449e-016 -90 -90   XYZ
    dof ry
    limits (-180.0 0.0)
  end
  begin
     id 28
     name rhand
     direction -1 -4.48979e-011 1.44186e-027   
     length 0.704599   
     axis -9.20027e-016 -90 -90   XYZ
    dof rx rz
    limits (-90.0 90.0)
           (-45.0 45.0)
  end
  begin
     id 29
     name rfingers
     direction -1 -4.48962e-011 2.88371e-027   
     length 0.568066   
     axis -1.84005e-015 -90 -90   XYZ
    dof rx
    limits (0.0 90.0)
  end
  begin
     id 30
     name rthumb
     direction -0.707107 -6.34949e-011 0.707107   
     length 0.815633   
     axis -90 -45 -2.85299e-015   XYZ
    dof rx rz
    limits (-45.0 45.0)
           (-45.0 45.0)
  end
:hierarchy
  begin
    root lhipjoint rhipjoint lowerback
    lhipjoint lfemur
    lfemur ltibia
    ltibia lfoot
    lfoot ltoes
    rhipjoint rfemur
    rfemur rtibia
    rtibia rfoot
    rfoot rtoes
    lowerback upperback
    upperback thorax
    thorax lowerneck lclavicle rclavicle
    lowerneck upperneck
    upperneck head
    lclavicle lhumerus
    lhumerus lradius
    lradius lwrist
    lwrist lhand lthumb
    lhand lfingers
    rclavicle rhumerus
    rhumerus rradius
    rradius rwrist
    rwrist rhand rthumb
    rhand rfingers
  end

#!OML:ASF E:\id_vita\Project 1\Capture day 1\Session 1\Male1.ASF
:FULLY-SPECIFIED
:DEGREES
41
root -23.2588 16.0032 -1.06963 -31.4407 89.652 -36.3009
lowerback -6.36878 -1.58297 -2.79145
upperback -0.836122 -1.91787 0.684036
thorax 2.8225 -0.980675 2.10463
lowerneck -2.80964 4.74541 10.0991
upperneck 11.2635 6.15558 -2.83911
head 4.24251 3.36446 -2.2058
rclavicle 5.16432e-015 -1.04362e-015
rhumerus -29.5987 -20.9761 -80.2591
rradius 13.9953
rwrist 19.9169
rhand -20.3818 36.7322
rfingers 7.12502
rthumb 5.97118 6.83632
lclavicle 5.16432e-015 -1.04362e-015
lhumerus -25.3766 14.9789 85.5597
lradius 11.2245
lwrist -16.6577
lhand -12.6868 43.3723
lfingers 7.12502
lthumb 13.3951 72.9216
rfemur -5.59553 5.11355 14.2797
rtibia 19.6487
rfoot -13.1184 -18.1131
rtoes -18.1736
lfemur -10.2066 -4.20017 -15.9277
ltibia 27.3863
lfoot -22.1256 14.5208
ltoes -14.6837
42
root -23.2569 16.0041 -1.07023 -29.8876 89.6378 -34.8703
lowerback -6.47903 -1.50736 -2.71986
upperback -0.920786 -1.81578 0.612324
thorax 2.78614 -0.926454 1.99827
lowerneck -2.73074 4.82255 10.3251
upperneck 11.1719 6.25355 -2.84757
head 4.21622 3.4201 -2.2409
rclavicle 4.34201e-015 -7.7526e-015
rhumerus -29.7586 -21.191 -80.2062
rradius 13.9999
rwrist 19.9424
rhand -20.3623 36.5598
rfingers 7.12502
rthumb 5.99003 6.66447
lclavicle 4.34201e-015 -7.7526e-015
lhumerus -25.4067 14.5511 85.5989
lradius 11.3306
lwrist -16.2697
lhand -12.2661 43.6052
lfingers 7.12502
lthumb 13.8006 73.1274
rfemur -5.72222 5.1417 14.255
rtibia 19.5834
rfoot -13.0619 -18.1209
rtoes -18.3091
lfemur -10.3661 -4.14315 -15.9224
ltibia 27.4405
lfoot -22.0557 14.4979
ltoes -14.767
43
root -23.2571 16.0043 -1.07069 -44.2219 89.5732 -49.22
lowerback -6.46918 -1.42022 -2.53011
upperback -0.974061 -1.71198 0.582184
thorax 2.71331 -0.870862 1.87104
lowerneck -2.67778 4.78487 10.5532
upperneck 11.1641 6.19743 -2.86632
head 4.20988 3.40185 -2.28704
rclavicle -4.32201e-015 -1.2921e-015
rhumerus -29.945 -21.28 -80.1915
rradius 14.108
rwrist 19.8819
rhand -20.3011 36.3981
rfingers 7.12502
rthumb 6.04915 6.5045
lclavicle -4.32201e-015 -1.2921e-015
lhumerus -25.502 14.3804 85.5478
lradius 11.2333
lwrist -16.4675
lhand -12.49 43.2377
lfingers 7.12502
lthumb 13.5848 72.7744
rfemur -5.71642 5.15579 14.384
rtibia 19.5644
rfoot -13.0308 -18.0963
rtoes -18.5391
lfemur -10.4123 -4.15002 -15.7884
ltibia 27.4946
lfoot -22.0323 14.5
ltoes -14.4255
44
root -23.2579 16.0043 -1.07031 -53.9553 89.4823 -58.9606
lowerback -6.43489 -1.43 -2.43644
upperback -0.989795 -1.73367 0.625338
thorax 2.67761 -0.880331 1.86203
lowerneck -2.49129 4.89194 10.5056
upperneck 10.8645 6.33403 -2.61217
head 4.08805 3.47247 -2.20102
rclavicle 1.85388e-014 8.44835e-016
rhumerus -29.9833 -21.2347 -80.2142
rradius 14.1465
rwrist 19.9534
rhand -20.1364 36.619
rfingers 7.12502
rthumb 6.20809 6.73
lclavicle 1.85388e-014 8.44835e-016
lhumerus -25.3697 15.2206 85.325
lradius 11.0404
lwrist -17.2463
lhand -12.5739 43.333
lfingers 7.12502
lthumb 13.5039 72.8751
rfemur -5.67982 5.14766 14.5264
rtibia 19.517
rfoot -12.9659 -18.1001
rtoes -18.464
lfemur -10.4302 -4.12259 -15.6431
ltibia 27.508
lfoot -22.0934 14.4698
ltoes -14.8549
45
root -23.2585 16.003 -1.06983 -52.7811 89.5232 -57.7269
lowerback -6.3601 -1.43439 -2.50781
upperback -0.968068 -1.73715 0.630595
thorax 2.66071 -0.883093 1.90862
lowerneck -2.53571 5.05671 10.664
upperneck 10.7366 6.54495 -2.69351
head 4.0787 3.57368 -2.23873
rclavicle 6.57717e-015 4.87022e-015
rhumerus -29.9492 -21.1216 -80.2679
rradius 14.2052
rwrist 19.7788
rhand -19.8465 36.8443
rfingers 7.12502
rthumb 6.48804 6.9637
lclavicle 6.57717e-015 4.87022e-015
lhumerus -26.9633 13.2266 85.9965
lradius 13.2266
lwrist -14.5929
lhand -11.639 44.4732
lfingers 7.12502
lthumb 14.4049 73.9534
rfemur -5.61739 5.17399 14.4905
rtibia 19.5493
rfoot -13.0207 -18.1228
rtoes -17.9498
lfemur -10.3565 -4.16494 -15.6902
ltibia 27.4887
lfoot -22.1695 14.4729
ltoes -14.7301
